<?xml version="1.0" encoding="UTF-8"?>
<!DOCTYPE svg PUBLIC "-//W3C//DTD SVG 1.1//EN" "http://www.w3.org/Graphics/SVG/1.1/DTD/svg11.dtd">
<!-- Creator: CorelDRAW -->
<svg xmlns="http://www.w3.org/2000/svg" xml:space="preserve" width="6.82666in" height="6.82666in" style="shape-rendering:geometricPrecision; text-rendering:geometricPrecision; image-rendering:optimizeQuality; fill-rule:evenodd; clip-rule:evenodd"
viewBox="0 0 6.82666 6.82666"
 xmlns:xlink="http://www.w3.org/1999/xlink">
 <defs>
  <style type="text/css">
   <![CDATA[
    .fil2 {fill:none}
    .fil0 {fill:#212121;fill-rule:nonzero}
    .fil1 {fill:#66BB6A;fill-rule:nonzero}
   ]]>
  </style>
 </defs>
 <g id="Layer_x0020_1">
  <metadata id="CorelCorpID_0Corel-Layer"/>
  <path class="fil0" d="M3.30565 5.87572c-0.0183858,-0.152898 -0.0565,-0.243839 -0.102161,-0.287098 -0.0151811,-0.0143819 -0.0303465,-0.0214331 -0.0445984,-0.0222244 -0.0159567,-0.000885827 -0.0341732,0.00528346 -0.0530512,0.0172795 -0.0514291,0.032689 -0.0977323,0.100646 -0.12335,0.191 -0.015878,0.0566063 -0.0746457,0.089626 -0.131252,0.073748 -0.0387362,-0.0108661 -0.0664213,-0.0418189 -0.0749567,-0.0784173 -0.0373583,-0.124929 -0.108705,-0.253114 -0.198646,-0.340185 -0.0492717,-0.0476969 -0.102933,-0.0814606 -0.157165,-0.0919724 -0.0486024,-0.00942126 -0.101118,0.000783465 -0.155358,0.0384961 -0.0725748,0.0504606 -0.147197,0.145567 -0.220252,0.299531 -0.0250827,0.0531575 -0.0885118,0.0759173 -0.141669,0.0508346 -0.0464567,-0.0219213 -0.0696929,-0.0731299 -0.0580709,-0.121177 0.0274409,-0.132173 0.0596811,-0.406783 0.0644606,-0.623472 0.00274803,-0.124433 0.0119291,-0.215 0.00892913,-0.216646 -0.00183858,-0.00100787 -0.0262559,0.00796063 -0.0932677,0.0454291 -0.054811,0.0306457 -0.121551,0.0825236 -0.197594,0.167874 -0.0391181,0.0439488 -0.106469,0.0478661 -0.150417,0.00874803 -0.0209449,-0.0186417 -0.0327953,-0.0437008 -0.0352283,-0.0695787 -0.0121457,-0.0853661 -0.0320276,-0.171346 -0.0520551,-0.257949 -0.0470709,-0.203528 -0.094878,-0.410323 -0.0615945,-0.655283 -0.0164961,0.00665748 -0.0354016,0.0131378 -0.0573386,0.0192441 -0.0566063,0.0156457 -0.115189,-0.0175591 -0.130835,-0.0741654 -0.00446457,-0.0161575 -0.00494488,-0.0324764 -0.00204331,-0.0479094l-3.93701e-005 -7.87402e-006c0.0283661,-0.149752 0.0302362,-0.281358 0.031937,-0.401583 0.00375591,-0.265071 0.00688189,-0.481787 0.233472,-0.725457 -0.0240039,-0.00387402 -0.0539094,-0.00732677 -0.0910433,-0.0116142 -0.0257362,-0.0029685 -0.0535354,-0.00617717 -0.0611929,-0.00711417 -0.0584488,-0.00713386 -0.100051,-0.0603031 -0.0929173,-0.118752 0.00184646,-0.0151417 0.00679528,-0.0291496 0.0141142,-0.0414764 0.0524016,-0.108642 0.137508,-0.266567 0.256811,-0.418902 0.0821339,-0.104874 0.180402,-0.20715 0.295551,-0.289917 -0.0142795,-0.00105906 -0.0307244,-0.00248819 -0.0499291,-0.00458661 -0.0584488,-0.0062126 -0.100795,-0.0586378 -0.0945827,-0.117087 0.0040748,-0.0383189 0.0280079,-0.0697165 0.0604803,-0.0850472 0.0278228,-0.0157244 -0.00455118,0.00237402 0.032815,-0.0188976 0.16011,-0.0911654 0.511717,-0.291346 0.828728,-0.403909 -0.0354764,-0.026626 -0.051752,-0.0738504 -0.037063,-0.118291 0.00816142,-0.024689 0.0245118,-0.0443661 0.0450394,-0.0570236l-3.93701e-005 -5.90551e-005c0.244787,-0.151374 0.561791,-0.227311 0.884732,-0.226319 0.319681,0.000980315 0.647098,0.0768543 0.917626,0.229031 0.051315,0.0287638 0.0695984,0.093685 0.0408346,0.145 -0.000503937,0.000897638 -0.00101969,0.00178346 -0.00154331,0.00265748 0.334685,0.105161 0.730535,0.330543 0.903315,0.428925 0.0390591,0.0222362 0.00200394,0.00151575 0.0395236,0.022685 0.0510827,0.0287638 0.0691811,0.0935 0.0404173,0.144583 -0.0175,0.0310787 -0.0483189,0.0499449 -0.0812756,0.0534803l2.75591e-005 0.000271654c-0.022185,0.00242126 -0.040685,0.00395276 -0.0564213,0.00505512 0.222705,0.173657 0.334693,0.430307 0.41676,0.618378 0.0166614,0.038189 0.0320433,0.073437 0.0440394,0.0985315 0.025311,0.0529252 0.0029252,0.116358 -0.05,0.141669 -0.0108228,0.00517717 -0.0220827,0.00835827 -0.0333701,0.00968898l3.54331e-005 0.000311024 -0.0319685 0.00387795c-0.0336299,0.00405906 -0.0591181,0.00713386 -0.0789016,0.0103031 0.221366,0.239252 0.213622,0.451732 0.204236,0.707476 -0.00464961,0.126756 -0.00975591,0.265831 0.0202244,0.42411 0.010815,0.0577559 -0.0272441,0.11335 -0.085,0.124165 -0.0180709,0.00338189 -0.0359291,0.00198425 -0.0522677,-0.00330709 -0.0623937,-0.017685 -0.106512,-0.0372598 -0.145228,-0.0544331l-0.00146063 -0.000645669c0.0698898,0.328843 0.0320472,0.590406 -0.00736614,0.862673 -0.00517717,0.0357835 -0.0104252,0.0720276 -0.0132283,0.0921969 -0.00805118,0.0582165 -0.0617835,0.0988858 -0.12,0.0908346 -0.0261024,-0.00361024 -0.0486654,-0.0164055 -0.0649055,-0.0346654l-9.44882e-005 8.26772e-005c-0.0774331,-0.0869173 -0.145551,-0.142343 -0.200992,-0.176012 -0.0552441,-0.0335472 -0.0686063,-0.0528189 -0.0713819,-0.0511339 -0.00785433,0.00476772 0.0122165,0.12576 0.0132913,0.28876 0.00137795,0.208406 0.0171693,0.449295 0.0422874,0.568461 0.0119646,0.0575276 -0.0249724,0.113866 -0.0825,0.125831 -0.0491457,0.0102205 -0.0974173,-0.015252 -0.117902,-0.0587559l-1.5748e-005 7.87402e-006c-0.0730551,-0.153972 -0.147681,-0.249075 -0.220248,-0.299535 -0.0542402,-0.0377126 -0.106756,-0.0479134 -0.155362,-0.0384921 -0.0542283,0.0105118 -0.107894,0.0442717 -0.157165,0.0919724 -0.0912638,0.0883504 -0.163382,0.219031 -0.200272,0.345685 -0.0163346,0.056378 -0.0752874,0.0888346 -0.131665,0.0725 -0.0366142,-0.0106102 -0.0631299,-0.0391969 -0.0727559,-0.073378l-0.000161417 4.72441e-005c-0.025626,-0.0903976 -0.0720945,-0.158315 -0.123717,-0.190933 -0.0191102,-0.0120748 -0.037811,-0.0182677 -0.0544764,-0.0173425 -0.014685,0.000814961 -0.0303228,0.00805512 -0.0459882,0.0228228 -0.0459252,0.0432992 -0.0842165,0.134476 -0.1025,0.287917 -0.00690157,0.0584488 -0.0598858,0.100236 -0.118335,0.0933346 -0.0504528,-0.00595669 -0.0884803,-0.046252 -0.0935079,-0.0947559zm0.0445079 -0.441264c0.0219685,0.020811 0.0427087,0.0462126 0.061748,0.0764724 0.019185,-0.0303425 0.0400945,-0.055815 0.062252,-0.0767047 0.0543622,-0.051248 0.116138,-0.0767756 0.180154,-0.0803268 0.0620354,-0.00344094 0.123354,0.0143898 0.179476,0.0498465 0.0367795,0.0232402 0.0716181,0.0545669 0.102815,0.092622 0.0453031,-0.0819803 0.101047,-0.158008 0.164094,-0.219047 0.0778386,-0.0753622 0.167819,-0.129697 0.265496,-0.148634 0.103303,-0.0200276 0.211004,-0.00106299 0.317031,0.0726575 0.0165276,0.0114921 0.033,0.0243819 0.0493937,0.0387205 -0.00298819,-0.066748 -0.00476378,-0.134402 -0.00518898,-0.198894 -0.00151181,-0.229035 0.0254567,-0.432547 0.0892126,-0.471264 0.044874,-0.0272402 0.158035,-0.0298465 0.291382,0.0511339 0.0294094,0.0178622 0.0610197,0.039811 0.0943504,0.0665 0.0341063,-0.251819 0.052374,-0.502961 -0.0416929,-0.816098 -0.00190945,-0.00531102 -0.00343307,-0.0108386 -0.00450394,-0.0165669 -0.010815,-0.0577559 0.0272441,-0.11335 0.085,-0.124165 0.0920551,-0.0174252 0.149988,-0.000562992 0.214945,0.0269055 -0.00701181,-0.104075 -0.00354331,-0.198516 -0.000283465,-0.287409 0.00852362,-0.232323 0.0153898,-0.420343 -0.227528,-0.632382 -0.0405591,-0.0330787 -0.0515,-0.0918583 -0.0234764,-0.137795 0.058878,-0.0963268 0.0924882,-0.11976 0.202185,-0.137205 -0.0889094,-0.202752 -0.219472,-0.479705 -0.485988,-0.593594l2.3622e-005 -5.51181e-005c-0.0192835,-0.00818504 -0.0363504,-0.022126 -0.0483583,-0.0411969 -0.0312953,-0.0497047 -0.0163701,-0.11537 0.0333346,-0.146665 0.023315,-0.0147402 0.0431339,-0.0272717 0.0603425,-0.0379685 -0.27961,-0.153028 -0.709201,-0.368091 -0.931374,-0.353339l-1.1811e-005 -0.000165354c-0.0426575,0.00266929 -0.0845,-0.0207283 -0.103319,-0.0619213 -0.0243898,-0.0533858 -0.000885827,-0.116441 0.0525,-0.140831l0.0220591 -0.0100709c-0.192031,-0.0720039 -0.403276,-0.108091 -0.61122,-0.108728 -0.191028,-0.000586614 -0.378417,0.0285 -0.544606,0.086878l0.0763976 0.0254134c0.0486614,0.0123504 0.0832047,0.0579094 0.0799488,0.109839 -0.0036811,0.0586811 -0.0542362,0.103268 -0.112917,0.0995866 -0.222169,-0.014752 -0.65176,0.200315 -0.93137,0.353343 0.0164724,0.0102402 0.0353701,0.0221772 0.0574094,0.0361102 0.0190827,0.0111417 0.0348661,0.0282992 0.0441811,0.050189 0.0230079,0.0540748 -0.00217717,0.116575 -0.056252,0.139583 -0.16687,0.0713071 -0.30398,0.201846 -0.41102,0.338528 -0.0680394,0.086878 -0.123961,0.176169 -0.167976,0.25513 0.117831,0.0167992 0.18011,0.0409055 0.238933,0.137142l-4.72441e-005 2.75591e-005c0.0266575,0.0435748 0.0186929,0.101283 -0.0212047,0.135807 -0.257665,0.223646 -0.260449,0.419689 -0.263949,0.666878 -0.00100394,0.0711693 -0.00206693,0.146028 -0.00797244,0.226406 0.0281969,-0.00812992 0.064185,-0.00883071 0.119106,0.00156299l-3.14961e-005 0.00015748c0.00376378,0.000708661 0.0075315,0.00162205 0.0112835,0.00275984 0.0561457,0.0170276 0.0878583,0.0763543 0.0708307,0.1325 -0.0856811,0.282024 -0.0314567,0.516492 0.0216969,0.746311 0.00644488,0.0278661 0.012874,0.0556693 0.0190787,0.0835669 0.0373189,-0.0294055 0.0726378,-0.052685 0.105382,-0.0709921 0.145906,-0.0815866 0.265988,-0.0644173 0.299102,-0.0462638 0.079878,0.0437717 0.105437,0.209717 0.101071,0.40748 -0.0016811,0.0762677 -0.00658661,0.15935 -0.0134488,0.241476 0.0115669,-0.00948819 0.0231772,-0.0182717 0.0348071,-0.0263583 0.106024,-0.0737205 0.21372,-0.0926929 0.317028,-0.0726614 0.0976811,0.018937 0.187657,0.0732795 0.265496,0.148634 0.0629409,0.0609331 0.118602,0.136807 0.163866,0.21863 0.030937,-0.0379252 0.0654409,-0.0691339 0.101843,-0.0922717 0.0557402,-0.0354252 0.116839,-0.0532244 0.178886,-0.0497835 0.0637559,0.00354331 0.125331,0.0291496 0.179598,0.080563z"/>
  <path class="fil1" d="M3.34228 4.24659c7.48031e-005,-0.0406457 0.0319528,-0.0798701 0.071189,-0.0875984 0.0392362,-0.00772835 0.0709803,0.0189528 0.0709055,0.0595984 0,0.131543 -0.0509803,0.251854 -0.133394,0.340028 -0.0827874,0.0885669 -0.195902,0.14335 -0.319713,0.14335 -0.118685,0 -0.225488,-0.0507795 -0.302217,-0.132866 -0.0766969,-0.0820551 -0.124142,-0.196047 -0.124142,-0.322512 0,-0.120689 0.0952795,-0.254815 0.197933,-0.399311 0.11274,-0.158701 0.236217,-0.332516 0.206087,-0.461453 -0.00879134,-0.0378386 0.0150709,-0.0820748 0.0533031,-0.0987953 0.0382323,-0.0167205 0.0763622,0.000405512 0.0851535,0.0382441 0.0462205,0.197791 -0.101811,0.406169 -0.236976,0.596437 -0.084748,0.119287 -0.163406,0.230012 -0.163406,0.296878 0,0.091374 0.0350945,0.174614 0.0918268,0.235307 0.0567047,0.0606614 0.134248,0.098189 0.219185,0.098189 0.0798071,0 0.151039,-0.0335197 0.201689,-0.0877047 0.0510157,-0.0545787 0.0825748,-0.131496 0.0825748,-0.217791z"/>
  <path class="fil1" d="M3.34228 4.24659c7.48031e-005,-0.0406457 0.0319528,-0.0798701 0.071189,-0.0875984 0.0392362,-0.00772835 0.0709803,0.0189528 0.0709055,0.0595984 0,0.091374 0.0350945,0.174614 0.0918268,0.235307 0.0567047,0.0606614 0.134248,0.098189 0.219185,0.098189 0.0798071,0 0.151039,-0.0335197 0.201689,-0.0877047 0.0510157,-0.0545787 0.0825748,-0.131496 0.0825748,-0.217791 0,-0.0722953 -0.0813976,-0.186874 -0.169098,-0.310323 -0.131996,-0.185803 -0.276559,-0.389299 -0.230835,-0.584988 0.00957874,-0.0412402 0.0481457,-0.0727598 0.086126,-0.0704016 0.0379803,0.00235827 0.0610039,0.0377047 0.0514252,0.0789449 -0.0306181,0.131035 0.0963268,0.309736 0.212236,0.472894 0.0997008,0.140346 0.19224,0.270602 0.19224,0.385874 0,0.131543 -0.0509803,0.251854 -0.133394,0.340028 -0.0827874,0.0885669 -0.195902,0.14335 -0.319713,0.14335 -0.118685,0 -0.225488,-0.0507795 -0.302217,-0.132866 -0.0766969,-0.0820551 -0.124142,-0.196047 -0.124142,-0.322512z"/>
  <path class="fil1" d="M2.89072 4.64685c-0.00187402,-0.0401772 0.0283504,-0.0806457 0.0675079,-0.0903858 0.0391575,-0.00974016 0.0724291,0.0149331 0.0743031,0.0551102 0.00459449,0.0953346 0.0444488,0.166047 0.106846,0.214102 0.0736969,0.0567598 0.178969,0.0836654 0.296638,0.0836654 0.114547,0 0.215457,-0.0249803 0.283878,-0.0776772 0.0539921,-0.0415866 0.0885866,-0.104795 0.0927795,-0.191929 0.0019252,-0.0409764 0.0352677,-0.0789134 0.0744685,-0.0847244 0.0392008,-0.00581102 0.0694173,0.0227008 0.0674921,0.0636772 -0.00696063,0.144524 -0.0689291,0.252902 -0.166071,0.327724 -0.0993701,0.0765315 -0.233579,0.112811 -0.379295,0.112811 -0.142594,0 -0.272437,-0.0343504 -0.366535,-0.106823 -0.088748,-0.0683504 -0.145445,-0.169232 -0.152012,-0.305551z"/>
  <path class="fil1" d="M3.34263 3.98031c0,-0.0441811 0.0358189,-0.08 0.08,-0.08 0.0441811,0 0.08,0.0358189 0.08,0.08l0 0.340217c0,0.0441811 -0.0358189,0.08 -0.08,0.08 -0.0441811,0 -0.08,-0.0358189 -0.08,-0.08l0 -0.340217z"/>
  <path class="fil1" d="M3.20415 3.78725c0,0.086378 0.10115,0.223224 0.219799,0.223224 0.11865,0 0.219795,-0.136846 0.219795,-0.223224 0,-0.145008 -0.439594,-0.145441 -0.439594,0z"/>
  <path class="fil1" d="M4.07113 3.93704c-0.0125472,0.040937 -0.0528189,0.0695827 -0.0899409,0.0639803 -0.037122,-0.00560236 -0.0570394,-0.0433425 -0.0444921,-0.0842795 0.0556102,-0.181173 0.139319,-0.306126 0.227374,-0.437559 0.110866,-0.165484 0.22928,-0.342236 0.293705,-0.663319 0.00395669,-0.0197244 0.00714567,-0.0379803 0.00958268,-0.0547913 0.0332677,-0.229453 -0.0224606,-0.419402 -0.130075,-0.560803 -0.109008,-0.143228 -0.270791,-0.23713 -0.447677,-0.272626 -0.0120945,-0.00242913 -0.0265787,-0.00486614 -0.0433858,-0.00730315 -0.0680039,-0.00985433 -0.137685,0.00654724 -0.210071,0.0235866 -0.0738701,0.0173937 -0.150189,0.0353622 -0.237992,0.0329646 -0.0692598,-0.00188976 -0.138689,-0.0149252 -0.208583,-0.0280354 -0.100886,-0.0189331 -0.202902,-0.0380748 -0.293539,-0.0180039 -0.183945,0.0407402 -0.348579,0.146268 -0.447205,0.305327 -0.0877087,0.141449 -0.124874,0.328 -0.0797283,0.552996 0.0655433,0.326646 0.185858,0.506236 0.298508,0.674386 0.0866772,0.129386 0.169091,0.252394 0.223189,0.428646 0.0112677,0.036685 -0.0100709,0.0819567 -0.0476614,0.10111 -0.0375906,0.0191535 -0.0772047,0.00494488 -0.0884724,-0.0317402 -0.0488386,-0.159114 -0.126453,-0.274965 -0.208087,-0.396819 -0.119165,-0.177878 -0.246441,-0.367858 -0.316878,-0.718882 -0.0537677,-0.267961 -0.00579528,-0.496102 0.104421,-0.673854 0.126126,-0.203406 0.331717,-0.33726 0.559047,-0.38761 0.116878,-0.0258819 0.232205,-0.00424016 0.346256,0.0171614 0.064563,0.0121102 0.128697,0.0241496 0.189063,0.0257992 0.0698228,0.00190551 0.137217,-0.0139606 0.202441,-0.0293189 0.0857638,-0.020189 0.168323,-0.039622 0.260331,-0.0262874 0.0142992,0.00207087 0.0307638,0.00498031 0.0493937,0.00872047 0.202815,0.0406969 0.388504,0.148626 0.51389,0.313374 0.126768,0.166567 0.192346,0.39076 0.153012,0.662079 -0.00318898,0.0220118 -0.00680315,0.043122 -0.0108425,0.063248 -0.0715512,0.356591 -0.200732,0.549413 -0.321681,0.729949 -0.0802638,0.119807 -0.156575,0.233713 -0.203902,0.387906z"/>
  <path class="fil1" d="M3.0831 2.76136c-0.00951181,0.0107559 -0.0206378,0.0186181 -0.0328071,0.0245394l-3.93701e-005 -7.87402e-005c-0.000807087,0.000393701 -0.00162598,0.00076378 -0.00246063,0.00111811 -0.0430945,0.0184567 -0.0877087,0.0244528 -0.13026,0.0195354 -0.0439016,-0.00507087 -0.0856063,-0.0218346 -0.121185,-0.0485591 -0.0352756,-0.0264921 -0.0643031,-0.0626417 -0.083185,-0.106724 -0.0197362,-0.0460748 -0.0283898,-0.100642 -0.0213543,-0.16152l4.72441e-005 3.93701e-006c0.00330709,-0.0290118 0.0294094,-0.0499685 0.0584961,-0.046878 0.0823543,0.00887795 0.161933,0.035063 0.225524,0.0790276 0.0589055,0.0407283 0.104098,0.0964173 0.125846,0.167516 0.00322441,0.00854724 0.00429134,0.0180394 0.00264567,0.0276969 -0.00303937,0.017626 -0.0105079,0.0321457 -0.0212677,0.0443228zm-0.0928622 -0.0665c-0.0163071,-0.0346614 -0.0424173,-0.0631654 -0.0747795,-0.0855394 -0.0337402,-0.0233268 -0.0742323,-0.0401693 -0.11787,-0.0506378 0.00230709,0.0185551 0.00694094,0.0355551 0.0134882,0.0508386 0.0113425,0.0264764 0.028437,0.047937 0.0490197,0.0633937 0.0202717,0.0152283 0.0441969,0.0247992 0.0695236,0.0277244 0.019689,0.00227165 0.0402441,0.000496063 0.0606181,-0.00577953z"/>
  <path class="fil1" d="M3.79823 2.7859c-0.0121693,-0.00592126 -0.0232953,-0.0137835 -0.0328071,-0.0245394 -0.0107598,-0.0121772 -0.0182283,-0.0266969 -0.0212677,-0.0443228 -0.00164567,-0.00965748 -0.00057874,-0.0191496 0.00264567,-0.0276969 0.021748,-0.0710984 0.0669409,-0.126787 0.125846,-0.167516 0.0635906,-0.0439646 0.143169,-0.0701496 0.225524,-0.0790276 0.0290866,-0.00309055 0.055189,0.0178661 0.0584961,0.046878l4.72441e-005 -3.93701e-006c0.00703543,0.060878 -0.00161811,0.115445 -0.0213543,0.16152 -0.0188819,0.0440827 -0.0479094,0.0802323 -0.083185,0.106724 -0.0355787,0.0267244 -0.0772835,0.0434882 -0.121185,0.0485591 -0.0425512,0.00491732 -0.0871654,-0.00107874 -0.13026,-0.0195354 -0.000834646,-0.000354331 -0.00165354,-0.000724409 -0.00246063,-0.00111811l-3.93701e-005 7.87402e-005zm0.134835 -0.176579c-0.0323622,0.022374 -0.0584724,0.050878 -0.0747795,0.0855394 0.020374,0.00627559 0.0409291,0.00805118 0.0606181,0.00577953 0.0253268,-0.0029252 0.049252,-0.0124961 0.0695236,-0.0277244 0.0205827,-0.0154567 0.0376772,-0.0369173 0.0490197,-0.0633937 0.00654724,-0.0152835 0.0111811,-0.0322835 0.0134882,-0.0508386 -0.0436378,0.0104685 -0.0841299,0.027311 -0.11787,0.0506378z"/>
 </g>
 <rect class="fil2" width="6.82666" height="6.82666"/>
</svg>
