<?xml version="1.0" encoding="UTF-8"?>
<!DOCTYPE svg PUBLIC "-//W3C//DTD SVG 1.1//EN" "http://www.w3.org/Graphics/SVG/1.1/DTD/svg11.dtd">
<!-- Creator: CorelDRAW -->
<svg xmlns="http://www.w3.org/2000/svg" xml:space="preserve" width="2048px" height="2048px" style="shape-rendering:geometricPrecision; text-rendering:geometricPrecision; image-rendering:optimizeQuality; fill-rule:evenodd; clip-rule:evenodd"
viewBox="0 0 2048 2048"
 xmlns:xlink="http://www.w3.org/1999/xlink">
 <defs>
  <style type="text/css">
   <![CDATA[
    .fil1 {fill:none}
    .fil0 {fill:#424242}
   ]]>
  </style>
 </defs>
 <g id="Layer_x0020_1">
  <metadata id="CorelCorpID_0Corel-Layer"/>
  <path class="fil0" d="M1023.48 1792c-21.5197,-180.614 -135.966,-145.14 -166.573,-37.1941 -37.5685,-128.988 -180.16,-271.472 -291.803,-36.176 15.3083,-72.6166 35.4981,-284.44 6.62717,-300.261 -8.7815,-4.813 -61.6548,-5.21457 -132.118,73.8768 -14.7756,-106.267 -63.5729,-203.08 -23.1768,-336.046 -37.5048,-7.09961 -24.6969,13.6736 -72.5008,26.9788 29.8642,-157.655 -29.3244,-248.956 104.713,-365.296 -16.05,-26.2571 -38.8536,-25.7374 -97.9749,-32.9681 31.1575,-65.1721 103.436,-194.255 219.921,-244.034 -53.752,-33.9815 -38.4331,-24.2906 -87.7194,-29.6788 57.5327,-32.4685 276.129,-161.332 380.457,-154.404l-104.764 -34.8496c142.149,-87.9036 370.643,-88.5001 530.873,1.63347l-72.7548 33.2162c104.33,-6.92717 322.927,121.936 380.458,154.404 -49.2863,5.38819 -33.9673,-4.30276 -87.7205,29.6788 116.486,49.7788 156.755,178.862 187.912,244.034 -59.1213,7.23071 -67.5426,6.71103 -83.5914,32.9681 134.038,116.34 60.4654,207.641 90.3296,365.296 -47.804,-13.3051 -63.7619,-34.0784 -101.267,-26.9788 40.3973,132.966 20.3646,229.779 5.58898,336.046 -65.6882,-73.7327 -116.433,-84.1501 -127.5,-77.4308 -18.3532,11.1437 -13.8036,228.806 2.00906,303.815 -111.644,-235.296 -254.235,-92.8123 -291.803,36.176 -30.6071,-107.946 -146.101,-143.42 -167.622,37.1941zm-162.452 -371.803c4.11378,37.8166 21.2173,66.2434 46.8662,85.9973 29.4815,22.7055 70.1611,33.4677 114.836,33.4677 45.6532,0 87.7016,-11.3669 118.834,-35.3445 27.4512,-21.1429 45.9319,-50.8394 50.8937,-89.6847 16.0665,-7.70788 30.6366,-18.5504 43.0323,-31.8118 25.8201,-27.6248 41.7933,-65.3186 41.7933,-106.532 0,-29.7355 -19.6583,-62.654 -44.0363,-97.8993 14.9362,-43.4823 37.2945,-76.8615 60.7311,-111.842 37.8933,-56.563 78.3662,-116.974 100.784,-228.695 1.26496,-6.30591 2.39764,-12.9201 3.39685,-19.8166 12.3236,-85.004 -8.22284,-155.244 -47.9398,-207.43 -39.2835,-51.6166 -97.4599,-85.4304 -161.002,-98.1816 -5.83701,-1.17165 -10.9949,-2.08347 -15.4748,-2.73189 -28.8272,-4.17756 -54.6922,1.91103 -81.5623,8.23583 -20.4354,4.81181 -41.55,9.78308 -63.4252,9.18544 -18.913,-0.516142 -39.0059,-4.28859 -59.2347,-8.08229 -35.7319,-6.70512 -71.8642,-13.4858 -108.482,-5.37638 -71.2229,15.7748 -135.636,57.7111 -175.151,121.439 -34.5319,55.6902 -49.5615,127.167 -32.7154,211.12 22.0677,109.976 61.943,169.498 99.2776,225.227 23.8689,35.6292 46.6406,69.6213 62.0115,114.521 -24.3543,35.4307 -43.7363,68.6327 -43.7363,99.1005 0,39.6213 14.8654,75.3355 38.8949,101.043 14.2288,15.2221 31.7587,27.0071 51.4075,34.0914zm-13.4823 -281.228c-15.9272,-37.6595 -36.15,-67.8473 -57.1748,-99.2328 -35.2937,-52.6819 -72.9886,-108.949 -93.5233,-211.286 -14.1449,-70.4918 -2.5004,-128.939 24.9792,-173.255 30.8988,-49.8343 82.4788,-82.8957 140.11,-95.6599 28.3973,-6.28819 60.3591,-0.291733 91.9666,5.64095 21.8977,4.1067 43.65,8.19095 65.3493,8.78268 27.5091,0.751182 51.4205,-4.87796 74.563,-10.3276 22.6795,-5.33859 44.5099,-10.4776 65.8158,-7.39016 5.26654,0.764174 9.80434,1.52717 13.5933,2.28898 55.4185,11.1201 106.106,40.5402 140.258,85.4138 33.7158,44.302 51.1748,103.813 40.7528,175.701 -0.764174,5.26654 -1.76339,10.9866 -3.00236,17.1662 -20.1851,100.596 -57.2835,155.973 -92.0186,207.82 -19.8543,29.6339 -39.0024,58.2166 -54.6709,93.0686 -32.2524,-46.0288 -62.4792,-94.1044 -53.9835,-130.465 3.00118,-12.9201 -4.21181,-23.9941 -16.1114,-24.7335 -11.8996,-0.73819 -23.9823,9.13701 -26.9835,22.0571 -14.3256,61.3099 30.9662,125.066 72.3213,183.279 27.4772,38.6764 52.9784,74.5737 52.9784,97.2249 0,27.0355 -9.88702,51.1347 -25.8709,68.2335 -15.8681,16.9772 -38.1851,27.4784 -63.189,27.4784 -26.6114,0 -50.9056,-11.7579 -68.6717,-30.763 -10.2591,-10.976 -18.2599,-24.3059 -23.191,-39.1217 0.0921261,-0.874016 0.140551,-1.76339 0.140551,-2.66339l0 -103.329c25.5154,-12.8492 44.2122,-42.9626 44.2122,-63.7489 0,-45.4311 -137.726,-45.567 -137.726,0 0,20.5606 18.2953,50.243 43.3855,63.3201l0 78.3402 -0.00354331 0.034252 -0.00236221 0.0354331 -0.00472441 0.034252 -0.00236221 0.0366142 -0.00354331 0.034252 -0.00236221 0.0354331 -0.00236221 0.034252 -0.00354331 0.0366142 -0.00236221 0.034252 -0.00236221 0.0354331 -0.00354331 0.034252 -0.00354331 0.0366142 -0.00944883 0.140551 -0.00236221 0.034252 -0.00236221 0.0354331 -0.00236221 0.034252 -0.00236221 0.0366142 -0.00236221 0.034252 -0.00236221 0.0354331 -0.0011811 0.0354331 -0.00354331 0.0354331 -0.00236221 0.034252 -0.00236221 0.0354331 -0.0011811 0.0354331 -0.00236221 0.0354331 -0.0011811 0.034252 -0.00236221 0.0354331 -0.0011811 0.00708662 0 0.0283465 -0.00236221 0.0354331 -0.0011811 0.0354331 -0.0011811 0.034252 -0.00236221 0.0366142 -0.0011811 0.034252 -0.0011811 0.0354331 -0.0011811 0.0354331 -0.0011811 0.0354331 -0.00236221 0.034252 -0.00472441 0.141732 -0.0011811 0.034252 -0.0011811 0.0366142 -0.0011811 0.0354331 0 0.00236221 -0.0011811 0.0318898 0 0.0354331 -0.0011811 0.0354331 -0.00590552 0.424016 0 0.034252 0 0.0366142 0 0.090945 0 0.090945c-0.0448819,26.9622 -9.92481,50.9918 -25.8709,68.0516 -15.8693,16.9772 -38.1862,27.4784 -63.1902,27.4784 -26.6103,0 -50.9056,-11.7579 -68.6705,-30.763 -17.7744,-19.0146 -28.7693,-45.0945 -28.7693,-73.7221 0,-20.9492 24.6437,-55.6394 51.1949,-93.0119 42.3473,-59.6115 88.7257,-124.897 74.2453,-186.866 -2.75433,-11.8547 -14.7012,-17.2205 -26.6788,-11.9811 -11.9787,5.23819 -19.454,19.0973 -16.6996,30.952 8.12599,34.7729 -19.4091,79.9654 -49.7611,123.587zm174.181 221.608c5.38819,9.29292 11.7413,17.8559 18.913,25.5284 24.039,25.7173 57.5008,41.6268 94.6855,41.6268 3.72992,0 7.42796,-0.161811 11.0894,-0.472441 -4.39016,17.7236 -13.6642,31.3252 -26.3634,41.1071 -21.437,16.5095 -53.0516,24.3366 -88.9406,24.3366 -36.8658,0 -69.8469,-8.42953 -92.9363,-26.2134 -12.802,-9.85867 -22.5744,-22.761 -28.2,-38.8807 36.5658,-1.58268 69.8292,-18.3992 94.4977,-44.7886 6.38504,-6.8315 12.1665,-14.2807 17.2547,-22.2437zm-101.184 -540.843c-2.78977,3.15473 -6.02363,5.51339 -9.55276,7.3252 -0.468898,0.257481 -0.955513,0.494882 -1.45748,0.709843l-6.57875 -15.3591 6.52678 15.3378c-13.5012,5.78268 -27.4795,7.66182 -40.8107,6.12048 -13.7539,-1.58858 -26.8205,-6.84095 -37.9677,-15.2138 -11.0516,-8.29961 -20.1461,-19.6252 -26.061,-33.4359 -6.08977,-14.2146 -8.81103,-31.0099 -6.7878,-49.7327 0.0153543,-0.255118 0.0366142,-0.512599 0.0637796,-0.770079 0.987402,-9.17481 9.22914,-15.8091 18.4028,-14.8217l-0.00354331 0.0366142c25.7929,2.78386 50.7154,10.9878 70.6323,24.7571 18.3662,12.698 32.4792,30.039 39.3296,52.1622 1.11024,2.77205 1.49055,5.87599 0.944883,9.03308l-0.0236221 -0.00354331c-0.955513,5.50748 -3.29173,10.0465 -6.6567,13.8543zm-29.0941 -20.8347c-5.10945,-10.8591 -13.2898,-19.7894 -23.4284,-26.7992 -10.5709,-7.30867 -23.2571,-12.5847 -36.9296,-15.8646 0.722835,5.81339 2.17441,11.139 4.22599,15.9272 3.55394,8.29489 8.90906,15.0189 15.3579,19.8614 6.35197,4.77166 13.8473,7.7693 21.7819,8.68583 6.1689,0.712205 12.6095,0.155906 18.9921,-1.81063zm252.421 28.1599c-3.52914,-1.81181 -6.76182,-4.17048 -9.55276,-7.3252 -3.36496,-3.80788 -5.70119,-8.34686 -6.6567,-13.8543l-0.0236221 0.00354331c-0.544489,-3.15709 -0.165354,-6.26103 0.944883,-9.03308 6.8504,-22.1232 20.9634,-39.4642 39.3296,-52.1622 19.9169,-13.7693 44.8394,-21.9732 70.6323,-24.7571l-0.00354331 -0.0366142c9.17481,-0.987402 17.4154,5.64685 18.4028,14.8217 0.0271654,0.257481 0.0484252,0.514961 0.0649607,0.770079 2.02205,18.7228 -0.698032,35.5181 -6.7878,49.7327 -5.91615,13.8106 -15.0106,25.1362 -26.0622,33.4359 -11.1473,8.37284 -24.2138,13.6252 -37.9677,15.2138 -13.3311,1.54134 -27.3095,-0.337796 -40.8107,-6.12048l6.52796 -15.3378 -6.57993 15.3591c-0.501969,-0.214961 -0.987402,-0.452363 -1.45748,-0.709843zm42.9697 -54.9591c-10.1386,7.00985 -18.3189,15.9402 -23.4284,26.7992 6.38386,1.96654 12.8232,2.52284 18.9921,1.81063 7.93465,-0.916536 15.4311,-3.91418 21.7819,-8.68583 6.44882,-4.84252 11.8039,-11.5665 15.3579,-19.8614 2.05158,-4.78819 3.50315,-10.1138 4.22599,-15.9272 -13.6725,3.27992 -26.3587,8.55591 -36.9296,15.8646z"/>
 </g>
 <rect class="fil1" width="2048" height="2048"/>
</svg>
